name ./resultDataOpenSim/trcMotMarkerGrf/sub06/grf-02-06.mot
datacolumns 19
datarows 22
range 0.99200000 1.07600000
endheader

                time	     ground_force_vx	     ground_force_vy	     ground_force_vz	     ground_force_px	     ground_force_py	     ground_force_pz	   l_ground_force_vx	   l_ground_force_vy	   l_ground_force_vz	   l_ground_force_px	   l_ground_force_py	   l_ground_force_pz	     ground_torque_x	     ground_torque_y	     ground_torque_z	   l_ground_torque_x	   l_ground_torque_y	   l_ground_torque_z	
          0.99200000	          0.00000000	          0.00000000	          0.00000000	          0.00000000	          0.00000000	          0.00000000	         88.62303084	        683.70434180	         36.45133632	          0.05700792	         -0.02500000	         -0.01696324	          0.00000000	          0.00000000	          0.00000000	          0.00000000	         -1.99689132	          0.00000000	
          0.99600000	          0.00000000	          0.00000000	          0.00000000	          0.00000000	          0.00000000	          0.00000000	         94.96342972	        703.54060101	         38.04301841	          0.05758349	         -0.02500000	         -0.01678952	          0.00000000	          0.00000000	          0.00000000	          0.00000000	         -2.06884357	          0.00000000	
          1.00000000	          0.00000000	          0.00000000	          0.00000000	          0.00000000	          0.00000000	          0.00000000	        101.67960550	        721.96569196	         39.13840483	          0.05818372	         -0.02500000	         -0.01657910	          0.00000000	          0.00000000	          0.00000000	          0.00000000	         -2.16933056	          0.00000000	
          1.00400000	          0.00000000	          0.00000000	          0.00000000	          0.00000000	          0.00000000	          0.00000000	        108.72107475	        738.73975913	         39.72158636	          0.05879750	         -0.02500000	         -0.01634425	          0.00000000	          0.00000000	          0.00000000	          0.00000000	         -2.29509488	          0.00000000	
          1.00800000	          0.00000000	          0.00000000	          0.00000000	          0.00000000	          0.00000000	          0.00000000	        116.04626995	        753.60500435	         39.80171936	          0.05939656	         -0.02500000	         -0.01610100	          0.00000000	          0.00000000	          0.00000000	          0.00000000	         -2.44123701	          0.00000000	
          1.01200000	          0.00000000	          0.00000000	          0.00000000	          0.00000000	          0.00000000	          0.00000000	        123.63868418	        766.28281924	         39.40895752	          0.05997402	         -0.02500000	         -0.01585642	          0.00000000	          0.00000000	          0.00000000	          0.00000000	         -2.60211045	          0.00000000	
          1.01600000	          0.00000000	          0.00000000	          0.00000000	          0.00000000	          0.00000000	          0.00000000	        131.47558128	        776.52873539	         38.59076797	          0.06054083	         -0.02500000	         -0.01560712	          0.00000000	          0.00000000	          0.00000000	          0.00000000	         -2.77194296	          0.00000000	
          1.02000000	          0.00000000	          0.00000000	          0.00000000	          0.00000000	          0.00000000	          0.00000000	        139.48397113	        784.16169335	         37.41124084	          0.06112910	         -0.02500000	         -0.01534221	          0.00000000	          0.00000000	          0.00000000	          0.00000000	         -2.94508076	          0.00000000	
          1.02400000	          0.00000000	          0.00000000	          0.00000000	          0.00000000	          0.00000000	          0.00000000	        147.53045629	        789.06308989	         35.94317195	          0.06178731	         -0.02500000	         -0.01504298	          0.00000000	          0.00000000	          0.00000000	          0.00000000	         -3.11590423	          0.00000000	
          1.02800000	          0.00000000	          0.00000000	          0.00000000	          0.00000000	          0.00000000	          0.00000000	        155.44730860	        791.20803799	         34.26208302	          0.06256376	         -0.02500000	         -0.01469183	          0.00000000	          0.00000000	          0.00000000	          0.00000000	         -3.27855460	          0.00000000	
          1.03200000	          0.00000000	          0.00000000	          0.00000000	          0.00000000	          0.00000000	          0.00000000	        163.07454947	        790.70258354	         32.45244808	          0.06348431	         -0.02500000	         -0.01427735	          0.00000000	          0.00000000	          0.00000000	          0.00000000	         -3.42667417	          0.00000000	
          1.03600000	          0.00000000	          0.00000000	          0.00000000	          0.00000000	          0.00000000	          0.00000000	        170.29276493	        787.72343889	         30.60979489	          0.06452945	         -0.02500000	         -0.01380454	          0.00000000	          0.00000000	          0.00000000	          0.00000000	         -3.55339291	          0.00000000	
          1.04000000	          0.00000000	          0.00000000	          0.00000000	          0.00000000	          0.00000000	          0.00000000	        177.03271240	        782.37285717	         28.82178636	          0.06563708	         -0.02500000	         -0.01330350	          0.00000000	          0.00000000	          0.00000000	          0.00000000	         -3.65171206	          0.00000000	
          1.04400000	          0.00000000	          0.00000000	          0.00000000	          0.00000000	          0.00000000	          0.00000000	        183.26016340	        774.59854097	         27.14394161	          0.06674243	         -0.02500000	         -0.01281765	          0.00000000	          0.00000000	          0.00000000	          0.00000000	         -3.71521740	          0.00000000	
          1.04800000	          0.00000000	          0.00000000	          0.00000000	          0.00000000	          0.00000000	          0.00000000	        188.94761558	        764.25687209	         25.59848196	          0.06781962	         -0.02500000	         -0.01237425	          0.00000000	          0.00000000	          0.00000000	          0.00000000	         -3.73886660	          0.00000000	
          1.05200000	          0.00000000	          0.00000000	          0.00000000	          0.00000000	          0.00000000	          0.00000000	        194.05626638	        751.22577224	         24.19434436	          0.06888516	         -0.02500000	         -0.01197263	          0.00000000	          0.00000000	          0.00000000	          0.00000000	         -3.71960437	          0.00000000	
          1.05600000	          0.00000000	          0.00000000	          0.00000000	          0.00000000	          0.00000000	          0.00000000	        198.52848034	        735.44348570	         22.93553501	          0.06995915	         -0.02500000	         -0.01159893	          0.00000000	          0.00000000	          0.00000000	          0.00000000	         -3.65669379	          0.00000000	
          1.06000000	          0.00000000	          0.00000000	          0.00000000	          0.00000000	          0.00000000	          0.00000000	        202.26873808	        716.85227880	         21.80171846	          0.07103045	         -0.02500000	         -0.01124159	          0.00000000	          0.00000000	          0.00000000	          0.00000000	         -3.55171626	          0.00000000	
          1.06400000	          0.00000000	          0.00000000	          0.00000000	          0.00000000	          0.00000000	          0.00000000	        205.12024980	        695.29569808	         20.72437924	          0.07207159	         -0.02500000	         -0.01089376	          0.00000000	          0.00000000	          0.00000000	          0.00000000	         -3.40817224	          0.00000000	
          1.06800000	         -2.41639379	         33.27209022	          4.69292916	          0.66885276	          0.00000000	          0.10477983	        206.86512637	        670.45365856	         19.59023100	          0.07307027	         -0.02500000	         -0.01055444	          0.00000000	          0.38050248	          0.00000000	          0.00000000	         -3.23069553	          0.00000000	
          1.07200000	         -8.81455812	        144.60873371	         11.71175839	          0.67446205	          0.00000000	          0.10259534	        207.24057838	        641.88887963	         18.28242992	          0.07402989	         -0.02500000	         -0.01023308	          0.00000000	          0.16510278	          0.00000000	          0.00000000	         -3.02415737	          0.00000000	
          1.07600000	        -16.04944953	        244.14600476	         18.37742568	          0.67935679	          0.00000000	          0.10092877	        205.95026025	        609.17050387	         16.73693629	          0.07496500	         -0.02500000	         -0.00994684	          0.00000000	         -0.08600283	          0.00000000	          0.00000000	         -2.79315518	          0.00000000	
